<svg preserveAspectRatio="none" width="100%" height="100%" overflow="visible" style="display: block;" viewBox="0 0 1191 1484" fill="none" xmlns="http://www.w3.org/2000/svg">
<g id="Group 1707481216">
<g id="Union" filter="url(#filter0_f_1096_292)">
<path d="M353.091 353C367.82 353 297.285 476.37 386.335 565.602C475.183 654.631 605 590.794 605 605.5C605 620.206 475.004 553.865 386.156 642.894C297.105 732.126 367.82 858 353.091 858C338.362 858 402.428 731.94 313.201 642.894C223.77 553.644 100 620.252 100 605.5C100 590.748 223.77 654.851 313.201 565.602C402.428 476.556 338.362 353 353.091 353Z" fill="var(--fill-0, #21D7C8)" fill-opacity="0.8"/>
</g>
<g id="Union_2" filter="url(#filter1_f_1096_292)">
<path d="M687.091 353C701.82 353 631.285 476.37 720.335 565.602C809.183 654.631 939 590.794 939 605.5C939 620.206 809.004 553.865 720.156 642.894C631.105 732.126 701.82 858 687.091 858C672.362 858 736.428 731.94 647.201 642.894C557.77 553.644 434 620.252 434 605.5C434 590.748 557.77 654.851 647.201 565.602C736.428 476.556 672.362 353 687.091 353Z" fill="var(--fill-0, #21D7C8)" fill-opacity="0.8"/>
</g>
<g id="Union_3" filter="url(#filter2_f_1096_292)">
<path d="M353.091 879C367.82 879 297.285 1002.37 386.335 1091.6C475.183 1180.63 605 1116.79 605 1131.5C605 1146.21 475.004 1079.86 386.156 1168.89C297.105 1258.13 367.82 1384 353.091 1384C338.362 1384 402.428 1257.94 313.201 1168.89C223.77 1079.64 100 1146.25 100 1131.5C100 1116.75 223.77 1180.85 313.201 1091.6C402.428 1002.56 338.362 879 353.091 879Z" fill="var(--fill-0, #21D7C8)" fill-opacity="0.8"/>
</g>
<g id="Union_4" filter="url(#filter3_f_1096_292)">
<path d="M687.091 879C701.82 879 631.285 1002.37 720.335 1091.6C809.183 1180.63 939 1116.79 939 1131.5C939 1146.21 809.004 1079.86 720.156 1168.89C631.105 1258.13 701.82 1384 687.091 1384C672.362 1384 736.428 1257.94 647.201 1168.89C557.77 1079.64 434 1146.25 434 1131.5C434 1116.75 557.77 1180.85 647.201 1091.6C736.428 1002.56 672.362 879 687.091 879Z" fill="var(--fill-0, #21D7C8)" fill-opacity="0.8"/>
</g>
<g id="Union_5" filter="url(#filter4_f_1096_292)">
<path d="M505.091 100C519.82 100 449.285 223.37 538.335 312.602C627.183 401.631 757 337.794 757 352.5C757 367.206 627.004 300.865 538.156 389.894C449.105 479.126 519.82 605 505.091 605C490.362 605 554.428 478.94 465.201 389.894C375.77 300.644 252 367.252 252 352.5C252 337.748 375.77 401.851 465.201 312.602C554.428 223.556 490.362 99.9997 505.091 100Z" fill="var(--fill-0, #21D7C8)" fill-opacity="0.8"/>
</g>
<g id="Union_6" filter="url(#filter5_f_1096_292)">
<path d="M839.091 100C853.82 100 783.285 223.37 872.335 312.602C961.183 401.631 1091 337.794 1091 352.5C1091 367.206 961.004 300.865 872.156 389.894C783.105 479.126 853.82 605 839.091 605C824.362 605 888.428 478.94 799.201 389.894C709.77 300.644 586 367.252 586 352.5C586 337.748 709.77 401.851 799.201 312.602C888.428 223.556 824.362 99.9997 839.091 100Z" fill="var(--fill-0, #21D7C8)" fill-opacity="0.8"/>
</g>
<g id="Union_7" filter="url(#filter6_f_1096_292)">
<path d="M505.091 617C519.82 617 449.285 740.37 538.335 829.602C627.183 918.631 757 854.794 757 869.5C757 884.206 627.004 817.865 538.156 906.894C449.105 996.126 519.82 1122 505.091 1122C490.362 1122 554.428 995.94 465.201 906.894C375.77 817.644 252 884.252 252 869.5C252 854.748 375.77 918.851 465.201 829.602C554.428 740.556 490.362 617 505.091 617Z" fill="var(--fill-0, #21D7C8)" fill-opacity="0.8"/>
</g>
<g id="Union_8" filter="url(#filter7_f_1096_292)">
<path d="M839.091 617C853.82 617 783.285 740.37 872.335 829.602C961.183 918.631 1091 854.794 1091 869.5C1091 884.206 961.004 817.865 872.156 906.894C783.105 996.126 853.82 1122 839.091 1122C824.362 1122 888.428 995.94 799.201 906.894C709.77 817.644 586 884.252 586 869.5C586 854.748 709.77 918.851 799.201 829.602C888.428 740.556 824.362 617 839.091 617Z" fill="var(--fill-0, #21D7C8)" fill-opacity="0.8"/>
</g>
</g>
<defs>
<filter id="filter0_f_1096_292" x="0" y="253" width="705" height="705" filterUnits="userSpaceOnUse" color-interpolation-filters="sRGB">
<feFlood flood-opacity="0" result="BackgroundImageFix"/>
<feBlend mode="normal" in="SourceGraphic" in2="BackgroundImageFix" result="shape"/>
<feGaussianBlur stdDeviation="50" result="effect1_foregroundBlur_1096_292"/>
</filter>
<filter id="filter1_f_1096_292" x="334" y="253" width="705" height="705" filterUnits="userSpaceOnUse" color-interpolation-filters="sRGB">
<feFlood flood-opacity="0" result="BackgroundImageFix"/>
<feBlend mode="normal" in="SourceGraphic" in2="BackgroundImageFix" result="shape"/>
<feGaussianBlur stdDeviation="50" result="effect1_foregroundBlur_1096_292"/>
</filter>
<filter id="filter2_f_1096_292" x="0" y="779" width="705" height="705" filterUnits="userSpaceOnUse" color-interpolation-filters="sRGB">
<feFlood flood-opacity="0" result="BackgroundImageFix"/>
<feBlend mode="normal" in="SourceGraphic" in2="BackgroundImageFix" result="shape"/>
<feGaussianBlur stdDeviation="50" result="effect1_foregroundBlur_1096_292"/>
</filter>
<filter id="filter3_f_1096_292" x="334" y="779" width="705" height="705" filterUnits="userSpaceOnUse" color-interpolation-filters="sRGB">
<feFlood flood-opacity="0" result="BackgroundImageFix"/>
<feBlend mode="normal" in="SourceGraphic" in2="BackgroundImageFix" result="shape"/>
<feGaussianBlur stdDeviation="50" result="effect1_foregroundBlur_1096_292"/>
</filter>
<filter id="filter4_f_1096_292" x="152" y="-5.71802e-10" width="705" height="705" filterUnits="userSpaceOnUse" color-interpolation-filters="sRGB">
<feFlood flood-opacity="0" result="BackgroundImageFix"/>
<feBlend mode="normal" in="SourceGraphic" in2="BackgroundImageFix" result="shape"/>
<feGaussianBlur stdDeviation="50" result="effect1_foregroundBlur_1096_292"/>
</filter>
<filter id="filter5_f_1096_292" x="486" y="-5.71802e-10" width="705" height="705" filterUnits="userSpaceOnUse" color-interpolation-filters="sRGB">
<feFlood flood-opacity="0" result="BackgroundImageFix"/>
<feBlend mode="normal" in="SourceGraphic" in2="BackgroundImageFix" result="shape"/>
<feGaussianBlur stdDeviation="50" result="effect1_foregroundBlur_1096_292"/>
</filter>
<filter id="filter6_f_1096_292" x="152" y="517" width="705" height="705" filterUnits="userSpaceOnUse" color-interpolation-filters="sRGB">
<feFlood flood-opacity="0" result="BackgroundImageFix"/>
<feBlend mode="normal" in="SourceGraphic" in2="BackgroundImageFix" result="shape"/>
<feGaussianBlur stdDeviation="50" result="effect1_foregroundBlur_1096_292"/>
</filter>
<filter id="filter7_f_1096_292" x="486" y="517" width="705" height="705" filterUnits="userSpaceOnUse" color-interpolation-filters="sRGB">
<feFlood flood-opacity="0" result="BackgroundImageFix"/>
<feBlend mode="normal" in="SourceGraphic" in2="BackgroundImageFix" result="shape"/>
<feGaussianBlur stdDeviation="50" result="effect1_foregroundBlur_1096_292"/>
</filter>
</defs>
</svg>
