<svg preserveAspectRatio="none" width="100%" height="100%" overflow="visible" style="display: block;" viewBox="0 0 125.028 22.5122" fill="none" xmlns="http://www.w3.org/2000/svg">
<g id="career">
<path id="Vector" d="M113.04 22.0391H108.617C108.103 22.0391 107.787 21.6836 107.866 21.1702L111.066 1.1454C111.145 0.631947 111.421 0.434462 111.895 0.434462H116.358C116.832 0.434462 117.109 0.789932 117.03 1.30339L116.477 4.77909C118.136 1.89584 120.9 0.0789922 124.336 0C124.85 0 125.166 0.315974 124.968 0.868926L123.112 5.72701C122.954 6.20097 122.757 6.43795 122.283 6.47745C116.793 6.83292 115.529 11.1775 114.976 14.3768L113.87 21.3282C113.791 21.8416 113.514 22.0391 113.04 22.0391Z" fill="var(--fill-0, black)"/>
<path id="Vector_2" d="M95.4981 22.512C88.4282 22.512 84.0835 17.6145 84.439 11.216C84.676 5.52849 88.9416 0.0384549 95.9325 0.0384549C101.541 0.0384549 105.135 3.67215 105.649 8.45124C105.767 9.79412 105.649 11.2555 105.293 12.7169C105.175 13.1908 104.819 13.3883 104.385 13.3883H90.2845C90.7585 15.9161 92.4173 17.7724 95.6561 17.7724C97.4334 17.7724 99.7637 17.338 101.818 16.3506C102.331 16.0741 102.726 16.2716 102.844 16.785L103.437 19.5498C103.516 19.9843 103.476 20.3002 103.121 20.5767C101.344 21.7616 98.7763 22.512 95.4981 22.512ZM90.403 9.55714H99.8032C99.8822 9.16218 99.9217 8.64872 99.8427 8.13526C99.6847 6.35792 98.4603 4.97553 95.972 4.97553C93.2073 4.97553 91.1534 6.79238 90.403 9.55714Z" fill="var(--fill-0, black)"/>
<path id="Vector_3" d="M71.2465 22.512C64.1766 22.512 59.832 17.6145 60.1874 11.216C60.4244 5.52849 64.69 0.0384549 71.681 0.0384549C77.2895 0.0384549 80.8837 3.67215 81.3971 8.45124C81.5156 9.79412 81.3971 11.2555 81.0417 12.7169C80.9232 13.1908 80.5677 13.3883 80.1332 13.3883H66.0329C66.5069 15.9161 68.1658 17.7724 71.4045 17.7724C73.1818 17.7724 75.5121 17.338 77.5659 16.3506C78.0794 16.0741 78.4744 16.2716 78.5929 16.785L79.1853 19.5498C79.2643 19.9843 79.2248 20.3002 78.8693 20.5767C77.092 21.7616 74.5247 22.512 71.2465 22.512ZM66.1514 9.55714H75.5516C75.6306 9.16218 75.6701 8.64872 75.5911 8.13526C75.4331 6.35792 74.2087 4.97553 71.7205 4.97553C68.9557 4.97553 66.9019 6.79238 66.1514 9.55714Z" fill="var(--fill-0, black)"/>
<path id="Vector_4" d="M49.5807 22.0391H45.1571C44.6437 22.0391 44.3277 21.6836 44.4067 21.1702L47.6059 1.1454C47.6849 0.631947 47.9614 0.434462 48.4353 0.434462H52.8984C53.3724 0.434462 53.6489 0.789932 53.5699 1.30339L53.0169 4.77909C54.6758 1.89584 57.4406 0.0789922 60.8768 0C61.3902 0 61.7062 0.315974 61.5087 0.868926L59.6524 5.72701C59.4944 6.20097 59.2969 6.43795 58.8229 6.47745C53.3329 6.83292 52.069 11.1775 51.5161 14.3768L50.4102 21.3282C50.3312 21.8416 50.0547 22.0391 49.5807 22.0391Z" fill="var(--fill-0, black)"/>
<path id="Vector_5" d="M27.2017 22.4339C22.8965 22.4339 20.4872 19.6691 20.7637 15.522C21.0402 11.1378 24.5554 8.53107 29.295 8.53107C31.6253 8.53107 33.6001 8.96553 35.4959 9.51848L35.5354 9.24201C35.6144 8.76805 35.6934 8.25459 35.6144 7.78063C35.3775 6.27976 34.311 5.09486 31.2698 5.09486C29.2555 5.09486 26.6882 5.41083 24.5554 5.96379C23.9629 6.12177 23.647 5.8453 23.7654 5.21335L24.4369 2.05362C24.5159 1.65865 24.7134 1.38218 25.1478 1.26369C26.8462 0.671239 29.295 0.197279 32.0202 0.197279C37.8262 0.197279 41.0255 2.60657 41.4599 6.83271C41.5784 7.97812 41.4994 9.04452 41.302 10.1109L39.5246 21.328C39.4456 21.8414 39.1296 22.0389 38.6557 22.0389H34.7455C34.2321 22.0389 33.9161 21.7229 33.9951 21.2095L34.1926 19.8271C32.8102 21.565 30.1244 22.4339 27.2017 22.4339ZM29.8874 18.2472C32.4152 18.2472 34.4295 16.2329 34.864 13.9026L34.9825 13.3497C33.8766 12.9152 32.3362 12.5597 30.8748 12.5597C28.663 12.5597 26.6882 13.6261 26.5697 15.2455C26.4117 17.2993 27.6756 18.2472 29.8874 18.2472Z" fill="var(--fill-0, black)"/>
<path id="Vector_6" d="M10.9467 22.5122C4.46923 22.5122 -0.191375 17.7331 0.00610767 10.9002C0.282584 4.73873 5.10117 0.0386356 12.0526 0.0386356C14.7383 0.0386356 17.2661 0.789071 18.8855 1.6185C19.241 1.81598 19.3595 2.17145 19.241 2.64541L18.3325 6.00263C18.1746 6.51608 17.8191 6.67407 17.3451 6.43709C15.9627 5.72615 14.1064 4.97571 11.5786 5.01521C8.81385 5.05471 6.16758 7.5035 6.00959 11.0977C5.85161 14.7709 7.66845 17.4172 10.7492 17.4566C12.6055 17.4961 14.8963 17.0222 16.5157 15.9558C16.9502 15.6793 17.3846 15.7583 17.5031 16.2323L18.372 19.3525C18.4905 19.7475 18.53 20.1029 18.2141 20.3399C16.3577 21.7618 13.9484 22.5122 10.9467 22.5122Z" fill="var(--fill-0, black)"/>
</g>
</svg>
