<svg preserveAspectRatio="none" width="100%" height="100%" overflow="visible" style="display: block;" viewBox="0 0 80 18.8772" fill="none" xmlns="http://www.w3.org/2000/svg">
<g id="Group 47" opacity="0.8">
<path id="Subtract" d="M21.3574 11.3517C20.8036 12.9171 20.1153 14.2004 19.291 15.2013C18.2593 16.4542 16.8961 17.3665 15.2012 17.9377C13.5245 18.5089 11.3682 18.7852 8.7334 18.7668L1.21582 18.7394C0.829253 18.7394 0.534668 18.6748 0.332031 18.5461C0.110929 18.4171 8.91545e-07 18.2418 0 18.0207C0 17.9101 0.0277322 17.7903 0.0830078 17.6613C0.138283 17.4955 0.221506 17.3756 0.332031 17.3019C0.424133 17.2283 0.571182 17.1269 0.773438 16.9982C1.06821 16.8324 1.29902 16.6481 1.46484 16.4455C1.6491 16.2428 1.80559 15.9199 1.93457 15.4777L3.10547 11.3517H10.0742L8.70605 16.2795H9.36914C10.2167 16.2795 10.9259 16.1041 11.4971 15.7541C12.0866 15.3856 12.6305 14.7227 13.1279 13.7648C13.4457 13.1411 13.7698 12.3362 14.1025 11.3517H21.3574ZM13.957 0.359534C16.7208 0.359536 18.8028 0.894361 20.2031 1.96305C21.6033 3.01326 22.3036 4.56061 22.3037 6.60563C22.3037 6.98148 22.2773 7.37907 22.2266 7.79801H15.0947C15.2934 6.85157 15.3945 6.05792 15.3945 5.41715C15.3945 4.44077 15.1914 3.76805 14.7861 3.39957C14.3808 3.03115 13.8003 2.84684 13.0449 2.84684H12.4365L11.0615 7.79801H4.11328L5.30664 3.59293C5.38024 3.3536 5.41698 3.12343 5.41699 2.9025C5.41699 2.69982 5.38034 2.53343 5.30664 2.40446C5.25136 2.25712 5.1681 2.09152 5.05762 1.90739C4.89192 1.66803 4.80872 1.47467 4.80859 1.32731C4.80859 1.27203 4.82741 1.17003 4.86426 1.02262C4.938 0.783282 5.0946 0.617639 5.33398 0.525549C5.59194 0.414995 5.97921 0.359534 6.49512 0.359534H13.957Z" fill="var(--fill-0, #F3F4F6)"/>
<path id="Subtract_2" d="M24.8921 14.7041C24.579 15.3856 24.4224 15.9198 24.4223 16.3066C24.4223 16.5277 24.4591 16.712 24.5327 16.8594C24.6064 16.9884 24.7173 17.127 24.8647 17.2744C24.9936 17.4217 25.0769 17.5506 25.1138 17.6611C25.1689 17.7532 25.1779 17.8822 25.1411 18.0479C25.0674 18.3241 24.9107 18.5173 24.6714 18.6279C24.4503 18.7201 24.0907 18.7666 23.5932 18.7666H19.4751C19.0517 18.7666 18.7294 18.6931 18.5083 18.5459C18.2873 18.3802 18.1764 18.1679 18.1763 17.9102C18.1763 17.6153 18.2872 17.3846 18.5083 17.2188C18.711 17.0346 19.0241 16.8413 19.4477 16.6387C20.0004 16.3623 20.4423 16.0948 20.7739 15.8369C21.1055 15.5606 21.3918 15.1831 21.6313 14.7041L23.2485 11.3516H26.4311L24.8921 14.7041ZM36.1958 15.5049C36.1221 15.7444 36.0855 15.9842 36.0854 16.2236C36.0854 16.4263 36.1132 16.6016 36.1684 16.749C36.2237 16.878 36.2792 16.9889 36.3345 17.0811C36.4077 17.1543 36.4536 17.2093 36.4722 17.2461C36.6563 17.4302 36.7484 17.6147 36.7485 17.7988C36.7485 17.8356 36.7306 17.928 36.6938 18.0752C36.6201 18.3332 36.4537 18.5174 36.1958 18.6279C35.9563 18.72 35.5788 18.7666 35.063 18.7666H28.5132C28.1264 18.7666 27.8221 18.7021 27.6011 18.5732C27.3984 18.4443 27.2964 18.269 27.2964 18.0479C27.2964 17.9373 27.3241 17.8174 27.3794 17.6885C27.4346 17.5411 27.509 17.4311 27.6011 17.3574C27.7116 17.2653 27.8592 17.1633 28.0434 17.0527C28.338 16.887 28.5771 16.7026 28.7612 16.5C28.9455 16.2973 29.102 15.9655 29.2309 15.5049L30.7456 11.3516H37.3931L36.1958 15.5049ZM33.2661 0C35.1455 0 36.6015 0.387253 37.6333 1.16113C38.6649 1.91651 39.1811 2.97561 39.1811 4.33887C39.1811 4.91006 39.089 5.50035 38.9048 6.1084L38.4175 7.79785H31.5278L32.2436 5.5C32.3173 5.27889 32.354 5.04813 32.354 4.80859C32.3539 4.45875 32.2529 4.20091 32.0503 4.03516C31.866 3.85097 31.5985 3.75879 31.2485 3.75879C30.8065 3.75887 30.4288 3.88767 30.1157 4.14551C29.8025 4.40343 29.4894 4.86419 29.1763 5.52734L27.9663 7.79785H24.9624L26.5503 4.50488C27.3057 2.92041 28.1903 1.77831 29.2036 1.07812C30.2353 0.359582 31.5896 5.86334e-05 33.2661 0Z" fill="var(--fill-0, #F3F4F6)"/>
<path id="Subtract_3" d="M54.5361 11.3518C54.6576 11.7596 54.7197 12.1949 54.7197 12.6584C54.7197 13.2296 54.6276 13.8011 54.4433 14.3723C54.0011 15.8462 53.1443 16.9705 51.873 17.7443C50.6018 18.4996 49.1187 18.8771 47.4238 18.8772C46.1525 18.8772 45.0837 18.7295 44.2178 18.4348C43.3518 18.14 42.4672 17.6427 41.5644 16.9426L40.5693 17.7717C40.1088 18.1585 39.7313 18.426 39.4365 18.5734C39.1417 18.7024 38.8098 18.7668 38.4414 18.7668C38.0176 18.7668 37.6769 18.6648 37.4189 18.4621C37.1794 18.2594 37.0595 17.9831 37.0595 17.633C37.0596 17.4489 37.0962 17.2555 37.1699 17.0529L38.5244 12.9348C38.6717 12.4559 38.874 12.115 39.1318 11.9123C39.3897 11.7097 39.7217 11.6086 40.1269 11.6086C40.5507 11.6086 40.9291 11.7552 41.2607 12.05C41.6108 12.3448 42.0615 12.8797 42.6142 13.6535C43.2038 14.501 43.7477 15.0904 44.2451 15.4221C44.761 15.7537 45.3692 15.9201 46.0693 15.9201C46.5667 15.9201 46.9442 15.8458 47.2021 15.6984C47.4785 15.5326 47.6726 15.275 47.7832 14.925C47.82 14.8329 47.8379 14.6942 47.8379 14.51C47.8378 14.0678 47.6258 13.6626 47.2021 13.2941C46.7783 12.9257 46.1245 12.4828 45.2402 11.967C44.8886 11.7533 44.5623 11.5474 44.2597 11.3518H54.5361ZM47.5615 0.193556C48.5932 0.193556 49.5423 0.322366 50.4082 0.580275C51.2925 0.819789 52.1861 1.20714 53.0888 1.74141L53.7246 1.21602C54.1668 0.865946 54.5263 0.626251 54.8027 0.497267C55.0975 0.368287 55.4293 0.303908 55.7978 0.303908C56.2398 0.303911 56.5897 0.40517 56.8476 0.607619C57.1055 0.791802 57.2352 1.06843 57.2353 1.43672C57.2353 1.58413 57.2076 1.74159 57.1523 1.90742L55.9912 5.7209C55.8622 6.16312 55.6968 6.47707 55.4941 6.66133C55.3099 6.84553 55.0236 6.9377 54.6367 6.9377C54.2317 6.93763 53.8726 6.81757 53.5595 6.57832C53.2648 6.32037 52.7942 5.80431 52.1494 5.03047C51.5046 4.2935 50.9151 3.77744 50.3808 3.48262C49.8649 3.16938 49.3301 3.01289 48.7773 3.01289C48.3722 3.013 48.0311 3.15068 47.7549 3.42695C47.4785 3.6849 47.3408 4.00783 47.3408 4.39473C47.3409 4.83679 47.5619 5.25107 48.0039 5.63789C48.4461 6.00641 49.1374 6.47685 50.0771 7.04805C50.5153 7.3093 50.9183 7.55992 51.2871 7.79805H40.9756C40.8356 7.34773 40.7627 6.85872 40.7627 6.3293C40.7627 5.68443 40.8637 5.04852 41.0664 4.42207C41.4533 3.15086 42.246 2.12853 43.4433 1.35469C44.6409 0.580849 46.0139 0.193595 47.5615 0.193556Z" fill="var(--fill-0, #F3F4F6)"/>
<path id="Subtract_4" d="M62.8094 15.505C62.7358 15.7444 62.6991 15.9745 62.6991 16.1954C62.6991 16.4164 62.7259 16.5919 62.7811 16.7208C62.8548 16.8498 62.9568 17.0162 63.0858 17.2189C63.1044 17.2378 63.1502 17.3114 63.2235 17.4396C63.3156 17.5501 63.3621 17.67 63.3621 17.799C63.3621 17.8358 63.3433 17.928 63.3065 18.0753C63.2143 18.3332 63.039 18.5175 62.7811 18.6281C62.5232 18.7201 62.1365 18.7667 61.6209 18.7667H55.1258C54.7389 18.7667 54.4437 18.7014 54.241 18.5724C54.0204 18.4435 53.9101 18.2688 53.91 18.048C53.91 17.9375 53.9378 17.8175 53.993 17.6886C54.0667 17.5412 54.1678 17.4214 54.2967 17.3292C54.4256 17.2188 54.5545 17.1265 54.6834 17.0529C54.9782 16.8871 55.2179 16.7028 55.4022 16.5001C55.5864 16.279 55.7429 15.9472 55.8719 15.505L57.0575 11.3517H64.0028L62.8094 15.505ZM74.6385 15.505C74.5649 15.7444 74.5272 15.9745 74.5272 16.1954C74.5272 16.4164 74.555 16.5919 74.6102 16.7208C74.6839 16.8498 74.7859 17.0162 74.9149 17.2189C74.9335 17.2379 74.9794 17.3115 75.0526 17.4396C75.1447 17.5501 75.1912 17.67 75.1912 17.799C75.1912 17.8358 75.1724 17.928 75.1356 18.0753C75.0434 18.3333 74.8681 18.5175 74.6102 18.6281C74.3523 18.7201 73.9656 18.7667 73.45 18.7667H66.9549C66.568 18.7667 66.2639 18.7014 66.0428 18.5724C65.8403 18.4435 65.7392 18.2689 65.7391 18.048C65.7391 17.9374 65.7668 17.8176 65.8221 17.6886C65.8958 17.5412 65.9968 17.4214 66.1258 17.3292C66.2547 17.2187 66.3836 17.1266 66.5125 17.0529C66.8073 16.8871 67.047 16.7028 67.2313 16.5001C67.4155 16.279 67.572 15.9472 67.701 15.505L68.8953 11.3517H75.8241L74.6385 15.505ZM66.9549 0.358531C67.3418 0.358538 67.637 0.423895 67.8397 0.552867C68.0604 0.681804 68.1707 0.84741 68.1707 1.04994C68.1707 1.14207 68.143 1.26191 68.0877 1.40931C68.0325 1.53818 67.9501 1.65821 67.8397 1.76869C67.7477 1.86067 67.6553 1.93414 67.5633 1.98939C67.4898 2.02612 67.4341 2.06301 67.3973 2.09974C67.1025 2.26557 66.8628 2.45077 66.6785 2.65345C66.4944 2.85614 66.3378 3.16927 66.2088 3.59291L65.0037 7.79798H58.0711L59.2713 3.59291C59.345 3.35337 59.3817 3.12261 59.3817 2.9015C59.3816 2.69895 59.345 2.53335 59.2713 2.40443C59.216 2.25702 59.1338 2.09064 59.0233 1.90638C58.9496 1.81425 58.8842 1.72214 58.8289 1.63002C58.7738 1.51969 58.746 1.40928 58.7459 1.29896C58.7459 1.26213 58.7648 1.16983 58.8016 1.02259C58.8753 0.783059 59.0417 0.616675 59.2996 0.524546C59.5576 0.414146 59.9443 0.358542 60.4598 0.358531H66.9549ZM78.784 0.358531C79.1708 0.35855 79.4652 0.423961 79.6678 0.552867C79.8889 0.681845 79.9998 0.847259 79.9998 1.04994C79.9998 1.14207 79.9721 1.26191 79.9168 1.40931C79.8616 1.53825 79.7783 1.65816 79.6678 1.76869C79.5758 1.86068 79.4835 1.93417 79.3914 1.98939C79.3181 2.02607 79.2632 2.06307 79.2264 2.09974C78.9316 2.26557 78.6919 2.45077 78.5076 2.65345C78.3235 2.85614 78.1669 3.16923 78.0379 3.59291L76.8377 7.79798H69.8953L71.1004 3.59291C71.1741 3.35337 71.2108 3.12261 71.2108 2.9015C71.2107 2.69897 71.1741 2.53335 71.1004 2.40443C71.0451 2.25702 70.962 2.09064 70.8514 1.90638C70.7778 1.81439 70.7132 1.72201 70.658 1.63002C70.6029 1.51968 70.5751 1.4093 70.575 1.29896C70.575 1.26213 70.5939 1.16985 70.6307 1.02259C70.7044 0.78314 70.87 0.616694 71.1278 0.524546C71.3857 0.413996 71.773 0.358535 72.2889 0.358531H78.784Z" fill="var(--fill-0, #F3F4F6)"/>
</g>
</svg>
